<svg xmlns="http://www.w3.org/2000/svg" width="115" height="20" viewBox="0 0 115 20" fill="none">
<path d="M9.57528 8.12926H8.02415C7.96449 7.79782 7.85346 7.50615 7.69105 7.25426C7.52865 7.00237 7.32978 6.78859 7.09446 6.61293C6.85914 6.43726 6.59564 6.30469 6.30398 6.2152C6.01563 6.12571 5.70904 6.08097 5.38423 6.08097C4.79759 6.08097 4.27225 6.22846 3.80824 6.52344C3.34754 6.81842 2.98295 7.25095 2.71449 7.82102C2.44934 8.3911 2.31676 9.08712 2.31676 9.90909C2.31676 10.7377 2.44934 11.437 2.71449 12.0071C2.98295 12.5772 3.3492 13.008 3.81321 13.2997C4.27723 13.5914 4.79924 13.7372 5.37926 13.7372C5.70076 13.7372 6.00568 13.6941 6.29403 13.608C6.5857 13.5185 6.8492 13.3875 7.08452 13.2152C7.31984 13.0429 7.5187 12.8324 7.68111 12.5838C7.84683 12.3319 7.96117 12.0436 8.02415 11.7188L9.57528 11.7237C9.49242 12.2242 9.33168 12.6849 9.09304 13.1058C8.85772 13.5234 8.55445 13.8847 8.18324 14.1896C7.81534 14.4912 7.39441 14.7249 6.92045 14.8906C6.4465 15.0563 5.92945 15.1392 5.36932 15.1392C4.48769 15.1392 3.70218 14.9304 3.01278 14.5128C2.32339 14.0919 1.77983 13.4903 1.3821 12.7081C0.987689 11.9259 0.790483 10.9929 0.790483 9.90909C0.790483 8.82197 0.989347 7.88897 1.38707 7.11008C1.7848 6.32789 2.32836 5.72798 3.01776 5.31037C3.70715 4.88944 4.491 4.67898 5.36932 4.67898C5.90956 4.67898 6.41335 4.75687 6.88068 4.91264C7.35133 5.0651 7.77391 5.29048 8.14844 5.58878C8.52296 5.88376 8.83286 6.24503 9.07812 6.67258C9.32339 7.09683 9.48911 7.58239 9.57528 8.12926ZM17.1855 4.51989L17.802 5.45952C17.5733 5.66832 17.3132 5.81747 17.0215 5.90696C16.7331 5.99313 16.4 6.04782 16.0222 6.07102C15.6444 6.09091 15.2118 6.10914 14.7246 6.12571C14.1744 6.14228 13.722 6.2616 13.3674 6.48366C13.0127 6.70241 12.7393 7.02723 12.5471 7.4581C12.3581 7.88565 12.2355 8.42258 12.1792 9.06889H12.2736C12.5222 8.59493 12.8669 8.24029 13.3077 8.00497C13.7518 7.76965 14.2507 7.65199 14.8042 7.65199C15.4206 7.65199 15.9692 7.79285 16.4498 8.07457C16.9303 8.3563 17.3082 8.76894 17.5833 9.3125C17.8617 9.85275 18.0009 10.514 18.0009 11.2962C18.0009 12.0883 17.8551 12.7727 17.5634 13.3494C17.275 13.9261 16.8674 14.3719 16.3404 14.6868C15.8167 14.9983 15.1986 15.1541 14.486 15.1541C13.7734 15.1541 13.1519 14.9934 12.6216 14.6719C12.0946 14.3471 11.6853 13.8665 11.3936 13.2301C11.1053 12.5937 10.9611 11.8082 10.9611 10.8736V10.1179C10.9611 8.37121 11.2727 7.05705 11.8958 6.17543C12.5189 5.2938 13.4502 4.84138 14.6898 4.81818C15.0909 4.80824 15.4488 4.80658 15.7637 4.81321C16.0785 4.81652 16.3536 4.80161 16.589 4.76847C16.8276 4.73201 17.0265 4.64915 17.1855 4.51989ZM14.4909 13.9062C14.9052 13.9062 15.2615 13.8018 15.5598 13.593C15.8614 13.3809 16.0935 13.081 16.2559 12.6932C16.4183 12.3054 16.4995 11.848 16.4995 11.321C16.4995 10.804 16.4183 10.3648 16.2559 10.0036C16.0935 9.64228 15.8614 9.36719 15.5598 9.17827C15.2582 8.98603 14.897 8.88991 14.476 8.88991C14.1645 8.88991 13.8861 8.9446 13.6408 9.05398C13.3955 9.16004 13.1851 9.31747 13.0094 9.52628C12.8371 9.73509 12.7028 9.99029 12.6067 10.2919C12.5139 10.5902 12.4642 10.9332 12.4576 11.321C12.4576 12.1098 12.6382 12.7379 12.9995 13.2053C13.3641 13.6726 13.8612 13.9062 14.4909 13.9062ZM19.6614 17.8636V7.36364H21.1131V8.60156H21.2374C21.3236 8.44247 21.4479 8.25852 21.6103 8.04972C21.7727 7.84091 21.998 7.65862 22.2864 7.50284C22.5748 7.34375 22.9559 7.2642 23.4299 7.2642C24.0463 7.2642 24.5965 7.41998 25.0804 7.73153C25.5643 8.04309 25.9438 8.49219 26.2189 9.07884C26.4973 9.66548 26.6365 10.3714 26.6365 11.1967C26.6365 12.022 26.499 12.7296 26.2239 13.3196C25.9488 13.9062 25.571 14.3587 25.0904 14.6768C24.6098 14.9917 24.0613 15.1491 23.4448 15.1491C22.9808 15.1491 22.6013 15.0713 22.3063 14.9155C22.0146 14.7597 21.7859 14.5774 21.6202 14.3686C21.4545 14.1598 21.3269 13.9742 21.2374 13.8118H21.1479V17.8636H19.6614ZM21.1181 11.1818C21.1181 11.7187 21.196 12.1894 21.3517 12.5938C21.5075 12.9981 21.7329 13.3146 22.0279 13.5433C22.3229 13.7687 22.6841 13.8814 23.1117 13.8814C23.5558 13.8814 23.927 13.7637 24.2253 13.5284C24.5236 13.2898 24.749 12.9666 24.9015 12.5589C25.0572 12.1513 25.1351 11.6922 25.1351 11.1818C25.1351 10.678 25.0589 10.2256 24.9064 9.82457C24.7573 9.42353 24.5319 9.10701 24.2303 8.875C23.932 8.64299 23.5591 8.52699 23.1117 8.52699C22.6808 8.52699 22.3162 8.63802 22.0179 8.86009C21.723 9.08215 21.4992 9.39205 21.3468 9.78977C21.1943 10.1875 21.1181 10.6515 21.1181 11.1818ZM31.5186 15.1541C30.8027 15.1541 30.178 14.9901 29.6444 14.6619C29.1107 14.3338 28.6964 13.8748 28.4015 13.2848C28.1065 12.6948 27.959 12.0054 27.959 11.2166C27.959 10.4245 28.1065 9.73177 28.4015 9.13849C28.6964 8.54522 29.1107 8.08452 29.6444 7.75639C30.178 7.42827 30.8027 7.2642 31.5186 7.2642C32.2346 7.2642 32.8593 7.42827 33.3929 7.75639C33.9266 8.08452 34.3408 8.54522 34.6358 9.13849C34.9308 9.73177 35.0783 10.4245 35.0783 11.2166C35.0783 12.0054 34.9308 12.6948 34.6358 13.2848C34.3408 13.8748 33.9266 14.3338 33.3929 14.6619C32.8593 14.9901 32.2346 15.1541 31.5186 15.1541ZM31.5236 13.9062C31.9876 13.9062 32.3721 13.7836 32.677 13.5384C32.9819 13.2931 33.2073 12.9666 33.3532 12.5589C33.5023 12.1513 33.5769 11.7022 33.5769 11.2116C33.5769 10.7244 33.5023 10.277 33.3532 9.86932C33.2073 9.45833 32.9819 9.12855 32.677 8.87997C32.3721 8.63139 31.9876 8.5071 31.5236 8.5071C31.0563 8.5071 30.6685 8.63139 30.3603 8.87997C30.0553 9.12855 29.8283 9.45833 29.6792 9.86932C29.5333 10.277 29.4604 10.7244 29.4604 11.2116C29.4604 11.7022 29.5333 12.1513 29.6792 12.5589C29.8283 12.9666 30.0553 13.2931 30.3603 13.5384C30.6685 13.7836 31.0563 13.9062 31.5236 13.9062ZM39.9542 15.1541C39.2151 15.1541 38.5787 14.9867 38.0451 14.652C37.5148 14.3139 37.1071 13.8482 36.8221 13.255C36.5371 12.6617 36.3945 11.9822 36.3945 11.2166C36.3945 10.4411 36.5404 9.75663 36.832 9.16335C37.1237 8.56676 37.5347 8.10109 38.065 7.76633C38.5953 7.43158 39.2201 7.2642 39.9393 7.2642C40.5193 7.2642 41.0363 7.37192 41.4904 7.58736C41.9445 7.79948 42.3107 8.09777 42.5891 8.48224C42.8709 8.86671 43.0382 9.31581 43.0913 9.82955H41.6445C41.565 9.47159 41.3827 9.16335 41.0977 8.90483C40.8159 8.64631 40.4381 8.51705 39.9641 8.51705C39.5498 8.51705 39.1869 8.62642 38.8754 8.84517C38.5671 9.06061 38.3268 9.36884 38.1545 9.76989C37.9821 10.1676 37.896 10.6383 37.896 11.1818C37.896 11.7386 37.9805 12.2192 38.1495 12.6236C38.3185 13.0279 38.5572 13.3411 38.8654 13.5632C39.177 13.7853 39.5432 13.8963 39.9641 13.8963C40.2459 13.8963 40.5011 13.8449 40.7298 13.7422C40.9618 13.6361 41.1557 13.4853 41.3114 13.2898C41.4705 13.0942 41.5816 12.8589 41.6445 12.5838H43.0913C43.0382 13.0777 42.8775 13.5185 42.609 13.9062C42.3406 14.294 41.9809 14.599 41.5302 14.821C41.0827 15.0431 40.5574 15.1541 39.9542 15.1541ZM46.1376 12.9169L49.5034 7.36364H51.1042V15H49.6475V9.44176L46.2967 15H44.6809V7.36364H46.1376V12.9169ZM52.1557 8.64631V7.36364H58.5989V8.64631H56.1081V15H54.6564V8.64631H52.1557ZM61.2898 9.98864H63.5071C64.4418 9.98864 65.161 10.2206 65.6648 10.6847C66.1686 11.1487 66.4205 11.7469 66.4205 12.4794C66.4205 12.9567 66.3078 13.3859 66.0824 13.767C65.857 14.1482 65.5272 14.4498 65.093 14.6719C64.6589 14.8906 64.1302 15 63.5071 15H60.1712V7.36364H61.6278V13.7173H63.5071C63.9347 13.7173 64.286 13.6063 64.5611 13.3842C64.8362 13.1589 64.9737 12.8722 64.9737 12.5241C64.9737 12.1562 64.8362 11.8563 64.5611 11.6243C64.286 11.389 63.9347 11.2713 63.5071 11.2713H61.2898V9.98864ZM71.7923 15V7.36364H74.9592C75.8209 7.36364 76.5037 7.54759 77.0075 7.91548C77.5112 8.28007 77.7631 8.77557 77.7631 9.40199C77.7631 9.84943 77.6206 10.2041 77.3356 10.4659C77.0505 10.7277 76.6727 10.9034 76.2021 10.9929C76.5434 11.0327 76.8567 11.1354 77.1417 11.3011C77.4267 11.4635 77.6554 11.6823 77.8278 11.9574C78.0034 12.2325 78.0913 12.5606 78.0913 12.9418C78.0913 13.3461 77.9869 13.7041 77.7781 14.0156C77.5692 14.3239 77.266 14.5658 76.8683 14.7415C76.4738 14.9138 75.9982 15 75.4414 15H71.7923ZM73.1893 13.7571H75.4414C75.8093 13.7571 76.0977 13.6693 76.3065 13.4936C76.5153 13.3179 76.6197 13.0793 76.6197 12.7777C76.6197 12.4231 76.5153 12.1446 76.3065 11.9425C76.0977 11.737 75.8093 11.6342 75.4414 11.6342H73.1893V13.7571ZM73.1893 10.5455H74.9741C75.2525 10.5455 75.4911 10.5057 75.69 10.4261C75.8922 10.3466 76.0463 10.2339 76.1523 10.0881C76.2617 9.93892 76.3164 9.76326 76.3164 9.56108C76.3164 9.2661 76.1954 9.03575 75.9535 8.87003C75.7115 8.70431 75.3801 8.62145 74.9592 8.62145H73.1893V10.5455ZM82.9386 15.1541C82.1995 15.1541 81.5631 14.9867 81.0295 14.652C80.4992 14.3139 80.0915 13.8482 79.8065 13.255C79.5214 12.6617 79.3789 11.9822 79.3789 11.2166C79.3789 10.4411 79.5247 9.75663 79.8164 9.16335C80.1081 8.56676 80.5191 8.10109 81.0494 7.76633C81.5797 7.43158 82.2044 7.2642 82.9237 7.2642C83.5037 7.2642 84.0207 7.37192 84.4748 7.58736C84.9289 7.79948 85.2951 8.09777 85.5735 8.48224C85.8552 8.86671 86.0226 9.31581 86.0756 9.82955H84.6289C84.5494 9.47159 84.3671 9.16335 84.082 8.90483C83.8003 8.64631 83.4225 8.51705 82.9485 8.51705C82.5342 8.51705 82.1713 8.62642 81.8597 8.84517C81.5515 9.06061 81.3112 9.36884 81.1388 9.76989C80.9665 10.1676 80.8803 10.6383 80.8803 11.1818C80.8803 11.7386 80.9648 12.2192 81.1339 12.6236C81.3029 13.0279 81.5415 13.3411 81.8498 13.5632C82.1613 13.7853 82.5276 13.8963 82.9485 13.8963C83.2302 13.8963 83.4854 13.8449 83.7141 13.7422C83.9461 13.6361 84.14 13.4853 84.2958 13.2898C84.4549 13.0942 84.5659 12.8589 84.6289 12.5838H86.0756C86.0226 13.0777 85.8619 13.5185 85.5934 13.9062C85.3249 14.294 84.9653 14.599 84.5146 14.821C84.0671 15.0431 83.5418 15.1541 82.9386 15.1541ZM90.9565 15.1541C90.2041 15.1541 89.5562 14.9934 89.0126 14.6719C88.4724 14.3471 88.0547 13.8913 87.7598 13.3047C87.4681 12.7147 87.3223 12.0237 87.3223 11.2315C87.3223 10.4493 87.4681 9.75994 87.7598 9.16335C88.0547 8.56676 88.4657 8.10109 88.9927 7.76633C89.523 7.43158 90.1428 7.2642 90.8521 7.2642C91.283 7.2642 91.7006 7.33546 92.1049 7.47798C92.5093 7.6205 92.8722 7.84422 93.1937 8.14915C93.5152 8.45407 93.7688 8.85014 93.9544 9.33736C94.14 9.82126 94.2328 10.4096 94.2328 11.1023V11.6293H88.1625V10.5156H92.7761C92.7761 10.1245 92.6966 9.77817 92.5375 9.47656C92.3784 9.17164 92.1547 8.93134 91.8663 8.75568C91.5813 8.58002 91.2465 8.49219 90.862 8.49219C90.4444 8.49219 90.0798 8.59493 89.7683 8.80043C89.46 9.0026 89.2214 9.26776 89.0524 9.59588C88.8867 9.92069 88.8038 10.2737 88.8038 10.6548V11.5249C88.8038 12.0353 88.8933 12.4695 89.0723 12.8274C89.2546 13.1854 89.5081 13.4588 89.8329 13.6477C90.1577 13.8333 90.5372 13.9261 90.9714 13.9261C91.2531 13.9261 91.51 13.8864 91.742 13.8068C91.974 13.724 92.1745 13.6013 92.3436 13.4389C92.5126 13.2765 92.6419 13.076 92.7314 12.8374L94.1383 13.0909C94.0256 13.5052 93.8234 13.8681 93.5318 14.1797C93.2434 14.4879 92.8805 14.7282 92.443 14.9006C92.0088 15.0696 91.5133 15.1541 90.9565 15.1541Z" fill="#ACADB9"/>
<line x1="110.742" y1="6.44219" x2="103.442" y2="13.7427" stroke="#ACADB9" stroke-width="1.25"/>
<line x1="110.901" y1="13.7425" x2="103.601" y2="6.44197" stroke="#ACADB9" stroke-width="1.25"/>
</svg>